<svg width="24" height="24" viewBox="0 0 24 24" fill="none" xmlns="http://www.w3.org/2000/svg">
<path fill-rule="evenodd" clip-rule="evenodd" d="M12 9.5C12 9.22386 11.7761 9 11.5 9C11.2239 9 11 9.22386 11 9.5V12L8.5 12C8.22386 12 8 12.2239 8 12.5C8 12.7761 8.22386 13 8.5 13L11 13V15.5C11 15.7761 11.2239 16 11.5 16C11.7761 16 12 15.7761 12 15.5V13L14.5 13C14.7761 13 15 12.7761 15 12.5C15 12.2239 14.7761 12 14.5 12L12 12V9.5Z" fill="#090B02"/>
<rect x="0.5" y="0.5" width="23" height="23" stroke="#E9E9E9"/>
</svg>
