<svg width="24" height="24" viewBox="0 0 24 24" fill="none" xmlns="http://www.w3.org/2000/svg">
<g clip-path="url(#clip0_63_386)">
<path d="M20.051 3.17088H16.3473V1.6229C16.3473 0.728022 15.6454 0 14.7827 0H9.21807C8.35535 0 7.65348 0.728022 7.65348 1.6229V3.17088H3.94973C3.36677 3.17088 2.89258 3.66274 2.89258 4.26743V6.2771C2.89258 6.88178 3.36677 7.37365 3.94973 7.37365H4.56372V22.4647C4.56372 23.3113 5.2277 23.9999 6.04374 23.9999H17.9569C18.773 23.9999 19.4369 23.3113 19.4369 22.4647V7.37374H20.051C20.634 7.37374 21.1082 6.88187 21.1082 6.27719V4.26743C21.1082 3.66283 20.6339 3.17088 20.051 3.17088ZM8.92207 1.6229C8.92207 1.45648 9.05764 1.31586 9.21807 1.31586H14.7827C14.9431 1.31586 15.0787 1.45648 15.0787 1.6229V3.17088H8.92207V1.6229ZM18.1683 22.4648C18.1683 22.5837 18.0715 22.6841 17.9569 22.6841H6.04374C5.92914 22.6841 5.83231 22.5837 5.83231 22.4648V7.37374H18.1683V22.4648ZM19.8396 6.05788H4.16116V4.48674H19.8396V6.05788Z" fill="#090B02"/>
<path d="M8.28761 20.8239C8.63791 20.8239 8.9219 20.5294 8.9219 20.166V10.1295C8.9219 9.76614 8.63791 9.47156 8.28761 9.47156C7.93723 9.47156 7.65332 9.76614 7.65332 10.1295V20.166C7.65332 20.5294 7.93723 20.8239 8.28761 20.8239Z" fill="#090B02"/>
<path d="M12.0005 20.8239C12.3509 20.8239 12.6348 20.5294 12.6348 20.166V10.1295C12.6348 9.76614 12.3509 9.47156 12.0005 9.47156C11.6501 9.47156 11.3662 9.76614 11.3662 10.1295V20.166C11.3662 20.5294 11.6502 20.8239 12.0005 20.8239Z" fill="#090B02"/>
<path d="M15.7134 20.8239C16.0638 20.8239 16.3477 20.5294 16.3477 20.166V10.1295C16.3477 9.76614 16.0638 9.47156 15.7134 9.47156C15.363 9.47156 15.0791 9.76614 15.0791 10.1295V20.166C15.0791 20.5294 15.363 20.8239 15.7134 20.8239Z" fill="#090B02"/>
</g>
<defs>
<clipPath id="clip0_63_386">
<rect width="24" height="23.9999" fill="white"/>
</clipPath>
</defs>
</svg>
