<svg width="12" height="12" viewBox="0 0 12 12" fill="none" xmlns="http://www.w3.org/2000/svg">
<path fill-rule="evenodd" clip-rule="evenodd" d="M8.96343 1.41089C9.76803 1.41089 10.542 1.71001 11.1114 2.24674C11.6814 2.78233 12 3.50474 12 4.26101V8.71961C12 10.2942 10.638 11.5697 8.96343 11.5697H3.03603C1.36143 11.5697 3.05176e-05 10.2942 3.05176e-05 8.71961V4.26101C3.05176e-05 2.68639 1.35543 1.41089 3.03603 1.41089H8.96343ZM9.91805 5.10185L9.96605 5.0567C10.1095 4.89303 10.1095 4.65599 9.95945 4.49232C9.87605 4.40823 9.76145 4.35687 9.64205 4.34558C9.51605 4.33937 9.39605 4.37944 9.30545 4.45846L6.60005 6.49022C6.25205 6.76169 5.75345 6.76169 5.40005 6.49022L2.70005 4.45846C2.51345 4.32865 2.25545 4.34558 2.10005 4.49796C1.93805 4.65035 1.92005 4.89303 2.05745 5.06234L2.13605 5.13571L4.86605 7.13926C5.20205 7.38759 5.60945 7.52304 6.03605 7.52304C6.46145 7.52304 6.87605 7.38759 7.21145 7.13926L9.91805 5.10185Z" fill="white"/>
</svg>
